<svg xmlns="http://www.w3.org/2000/svg" xmlns:xlink="http://www.w3.org/1999/xlink" viewBox="0 0 98.97 57.97" fill="#fff" fill-rule="evenodd" stroke="#000" stroke-linecap="round" stroke-linejoin="round"><use xlink:href="#A" x="6.485" y="6.485"/><symbol id="A" overflow="visible"><g stroke="none"><path d="M0 40.295h2.815V29.141l4.41 9.728c.493 1.167 1.206 1.595 2.594 1.595s2.049-.428 2.568-1.595l4.371-9.728v11.154h2.828V29.141c.12-.881-.464-1.704-1.336-1.881-2.14-.648-3.567-.091-4.215 1.362L9.728 38.22l-4.15-9.598c-.623-1.453-2.075-2.01-4.241-1.362-.882.285-1.323.804-1.323 1.881v11.154zm21.92-9.079h2.828v6.122c-.026.35.104 1.128 1.647 1.141h6.148v-7.302h2.827V41.19c0 2.464-3.048 3.009-4.475 3.022h-8.911v-1.881h8.95c1.816-.195 1.595-1.102 1.595-1.401v-.739h-5.992c-2.789-.026-4.591-1.258-4.604-2.659v-6.317zm60.778-7.095a9.99 9.99 0 0 0-4.202.61c-.324.13-.843.13-.882.545.169.169.195.454.35.687a5.06 5.06 0 0 0 1.128 1.323l1.388.999c.843.519 1.79.817 2.62 1.336a9 9 0 0 1 1.297 1.012c.259.169.389.454.687.558v-.065c-.156-.195-.195-.48-.35-.687l-.648-.622c-.632-.837-1.389-1.572-2.244-2.179-.687-.48-2.205-1.128-2.49-1.92l-.039-.039c.48-.039 1.038-.22 1.492-.35.739-.195 1.401-.156 2.166-.35l1.038-.298v-.195c-.389-.389-.674-.908-1.077-1.271-1.102-.947-2.309-1.881-3.567-2.659-.675-.428-1.531-.713-2.244-1.077-.259-.13-.687-.194-.843-.415-.389-.48-.61-1.102-.882-1.66l-1.777-3.761c-.389-.843-.623-1.686-1.103-2.464a21.79 21.79 0 0 0-8.366-8.093c-.7-.467-1.66-.661-2.672-.895l-1.621-.091c-.35-.156-.687-.558-.999-.752-1.232-.778-4.41-2.464-5.188-.233-.584 1.401.869 2.789 1.362 3.502.363.493.843 1.064 1.102 1.621l.35 1.141 1.128 2.905.804 1.336c.169.233.48.35.545.739-.298.428-.324 1.076-.493 1.621-.778 2.438-.48 5.473.623 7.263.35.545 1.297 1.725 2.27 1.271.973-.389.752-1.621 1.038-2.698.065-.259.026-.428.156-.61v.039l.882 1.79c.674 1.064 1.842 2.166 2.814 2.905.519.389.934 1.064 1.582 1.297v-.065h-.039c-.13-.195-.324-.285-.493-.428-.411-.401-.788-.835-1.128-1.297a27.89 27.89 0 0 1-2.425-3.93c-.35-.674-.648-1.401-.934-2.075-.13-.259-.13-.649-.35-.778-.324.48-.804.882-1.038 1.466-.415.934-.454 2.075-.609 3.269-.778-.13-1.012-.843-1.271-1.453-.649-1.53-.752-4.021-.195-5.772.156-.454.804-1.881.545-2.309-.13-.415-.558-.649-.804-.973-.285-.415-.584-.934-.778-1.388-.519-1.206-.778-2.555-1.336-3.761l-1.245-1.673c-.415-.584-.843-.999-1.193-1.686-.104-.259-.246-.649-.078-.908.169-.156.13-.221.169-.259.285-.233 1.076.065 1.362.195.804.324 1.466.623 2.14 1.077.298.22.623.623 1.012.739h.454c.687.156 1.466.039 2.114.233a13.88 13.88 0 0 1 3.113 1.492c2.862 1.825 5.189 4.376 6.745 7.393.259.493.363.947.61 1.466l1.466 3.178c.454 1.012.882 2.049 1.531 2.905.324.454 1.621.687 2.205.934.428.195 1.103.363 1.492.61l2.166 1.466c.35.259 1.297.804 1.492 1.232zM60.649 5.314c-.298 0-.597.039-.882.104v.078h.039c.169.35.48.584.687.882l.493 1.038.039-.039c.298-.22.454-.558.454-1.077-.13-.156-.156-.298-.259-.454-.13-.22-.415-.35-.584-.506z" fill="#00678c"/><path d="M37.51 40.295h8.132c.947 0 1.855-.195 2.594-.545 1.232-.558 1.816-1.323 1.816-2.309v-2.075c0-.804-.675-1.556-2.01-2.075-.687-.259-1.556-.415-2.399-.415h-3.424c-1.141 0-1.686-.35-1.842-1.102-.026-.091-.026-.169-.026-.259v-1.271c.169-.817.48-.973 1.479-1.077h8.327v-1.881h-7.782c-1.141 0-1.751.065-2.296.233-1.66.519-2.4 1.336-2.4 2.789v1.647c0 1.271 1.297 2.361 3.852 2.62.259.026.545.026.817.026h2.918c.104 0 .22 0 .298.026.882.091 1.271.233 1.531.558a.67.67 0 0 1 .221.519v1.647c0 .195-.13.454-.389.675s-.675.363-1.206.389c-.104 0-.169.026-.285.026H37.51zm30.156-3.268c0 1.919 1.453 3.009 4.345 3.217l.817.039h7.354v-1.881h-7.393c-1.647 0-2.27-.415-2.27-1.401v-9.728h-2.853v9.754zm-15.824.091v-6.719c0-1.712 1.206-2.75 3.567-3.074l.752-.039h5.37l.804.039c2.361.324 3.541 1.362 3.541 3.074v6.706c0 1.388-.493 2.114-1.66 2.62l2.763 2.503H63.71l-2.244-2.036-2.27.13h-3.009c-.556-.004-1.11-.078-1.647-.221-1.79-.493-2.685-1.453-2.685-3.009zm3.048-.156c0 .091.052.169.065.285.156.778.882 1.206 2.01 1.206h2.555l-2.335-2.114h3.268l2.049 1.855c.389-.221.623-.519.713-.908.026-.091.026-.195.026-.285v-6.42c0-.091 0-.169-.026-.259-.156-.739-.882-1.141-1.984-1.141h-4.28c-1.258 0-2.075.545-2.075 1.401z" fill="#ce8b2c"/></g></symbol></svg>