<?xml version="1.0" encoding="utf-8"?>
<!-- Generator: Adobe Illustrator 22.0.1, SVG Export Plug-In . SVG Version: 6.00 Build 0)  -->
<svg version="1.1" id="Layer_1" xmlns="http://www.w3.org/2000/svg" xmlns:xlink="http://www.w3.org/1999/xlink" x="0px" y="0px"
	 viewBox="0 0 42.1 62.5" style="enable-background:new 0 0 42.1 62.5;" xml:space="preserve">
<style type="text/css">
	.st0{fill:#FFFFFF;}
	.st1{fill:#DD00A1;}
	.st2{fill:#F9D8D2;}
	.st3{fill:#10110E;}
	.st4{fill:#E5E5E5;}
	.st5{opacity:0.2;fill:#8ACCCE;enable-background:new    ;}
	.st6{fill:#515151;}
</style>
<path class="st0" d="M14.2,55.4c0.9-0.6-1.5-0.4-1.7-0.8c-1-0.1-1.9-0.3-2.8-0.5c-1.7-0.4-5.8-3.2-6.3-5.8s0-7.7,1.8-10.6
	C6.5,35.8,8,34.3,9.7,33c0,0-3.6-8.5-3.9-14.9S6,0.2,10.2,0s3.5,10.5,2.8,17.4c-0.4,4.6-0.5,9.3-0.2,13.9c1.8-0.6,3.6-0.9,5.5-0.9
	c1.6,0,3.3,0.1,4.9,0.5c0,0,1.3-9.9,5.7-16S38,2.4,41,4.2s-0.8,8.2-3.5,11.5s-7.2,8.3-8.8,11c-1,1.8-1.9,3.6-2.6,5.5
	c2.7,1.4,5,3.6,6.4,6.3c2.1,4.3,2.3,9.6,1.2,11.8c-1.2,2.1-3.2,3.6-5.6,4c-1.3,0.1-6.9,1.5-6.9,1.5L14.2,55.4z"/>
<path class="st1" d="M24,30.9c0,0,3.3-8.7,6.3-13.6s7-8.6,8.3-7.8s-2.6,5.4-5.9,9.8c-2.7,4-5.2,8.1-7.4,12.4L24,30.9z"/>
<path class="st1" d="M10.6,32.4l0.9-0.8c0,0-0.1-8.7,0-14S12,5.8,10.2,5.8s-3,5.2-2.3,12.4C8.4,23,9.3,27.8,10.6,32.4z"/>
<circle class="st2" cx="7.7" cy="49.2" r="1.9"/>
<circle class="st2" cx="30.6" cy="49.2" r="1.9"/>
<path class="st3" d="M22.3,49c-0.1-0.1-0.2-0.1-0.2,0l0,0c0,0-0.6,1-1.4,1.1c-0.6,0-1.1-0.3-1.5-0.7V48c0.5-0.3,1.4-1.2,1.4-1.5
	c-0.2-0.7-0.8-1.2-1.5-1.1c-1,0-1.7,0.7-1.7,1.2s1.1,1.2,1.4,1.4v1.5c-0.3,0.4-0.8,0.7-1.3,0.7c-0.8,0-1.4-1.1-1.4-1.1
	c0-0.1-0.2-0.1-0.2-0.1l0,0c-0.1,0-0.1,0.1-0.1,0.2l0,0c0,0.1,0.7,1.3,1.7,1.3c0.6,0,1.1-0.3,1.5-0.7c0.4,0.4,1,0.7,1.6,0.7h0.1
	c0.7-0.1,1.4-0.6,1.7-1.2c0.1-0.1,0.1-0.2,0-0.2C22.4,49,22.4,49,22.3,49z"/>
<path class="st4" d="M9.7,33c0,0-2.7-7-3.3-10.7s-1-9.8-0.3-13.9c0.3-1.9,0.7-3.8,1.2-5.6c0,0-1.3,9.5-0.8,13.6S9.7,33,9.7,33z"/>
<path class="st4" d="M23.3,30.9c0,0,2-10.6,4.9-14.8s6.6-9.2,8.4-10.5l1.8-1.3c0,0-7.3,7.7-10.2,14S23.3,30.9,23.3,30.9z"/>
<path class="st3" d="M11.6,42.8c-0.8,0-1.5,0.7-1.5,1.5s0.7,1.5,1.5,1.5s1.5-0.7,1.5-1.5l0,0C13.1,43.5,12.5,42.9,11.6,42.8
	L11.6,42.8z M12,44.3c-0.2,0-0.4-0.2-0.4-0.4c0-0.2,0.2-0.4,0.4-0.4s0.4,0.2,0.4,0.4l0,0l0,0C12.4,44.1,12.2,44.3,12,44.3
	C12,44.3,12,44.3,12,44.3L12,44.3L12,44.3z"/>
<path class="st3" d="M26.5,42.8c-0.8,0-1.5,0.7-1.5,1.5s0.7,1.5,1.5,1.5c0.8,0,1.5-0.7,1.5-1.5l0,0C28.1,43.5,27.4,42.9,26.5,42.8
	C26.6,42.8,26.6,42.8,26.5,42.8z M27,44.3c-0.2,0-0.4-0.2-0.4-0.4c0,0,0,0,0,0l0,0c0-0.2,0.2-0.4,0.4-0.4c0.2,0,0.4,0.2,0.4,0.4
	c0,0,0,0,0,0l0,0C27.4,44.1,27.2,44.2,27,44.3C27,44.2,27,44.2,27,44.3L27,44.3L27,44.3z"/>
<ellipse class="st5" cx="19.4" cy="45" rx="14.1" ry="10.2"/>
<path class="st0" d="M36.4,39.3v-6.7c1.1-0.2,1.9-1.2,1.9-2.3c-0.2-1.5-1.5-2.5-2.9-2.4c-1.2,0.1-2.2,1.1-2.4,2.4
	c0.1,1.1,0.8,2,1.9,2.3v6.5h-0.2c-2-6.9-7.9-11.3-15.6-11.3S5.5,32.2,3.5,39.1H2.9c-1.5-0.1-2.8,1.1-2.9,2.6v5.1
	c0.1,1.5,1.4,2.7,2.9,2.6h0.9c0.8,2,2,3.7,3.6,5.1l-1.3,1.2C5.8,56,5.7,56.5,6,56.8c0,0,0,0,0,0l0,0l0,0c2.9,3.5,7.7,5.6,13.1,5.6
	s10.2-2,13.1-5.6c0.3-0.3,0.2-0.8-0.1-1.1l0,0l-1.3-1.2c1.6-1.4,2.8-3.1,3.6-5.1h1c1.5,0.1,2.8-1.1,2.9-2.6v-5.1
	C38.3,40.6,37.5,39.6,36.4,39.3z M19.2,35.3c7.1,0,12.9,4.7,12.9,10.5c0,6.2-6.5,9-12.9,9S6.2,52,6.2,45.7C6.2,40,12,35.2,19.2,35.3
	L19.2,35.3z"/>
<path class="st6" d="M36.9,45.2H35v-1c0-1.3-0.1-2.5-0.4-3.8h0.8c0.7-0.1,1.4,0.5,1.4,1.2l0,0L36.9,45.2z"/>
<path class="st6" d="M35.5,48.2h-1c0.2-0.7,0.3-1.4,0.4-2.2h2v0.8C36.9,47.6,36.3,48.2,35.5,48.2C35.5,48.2,35.5,48.2,35.5,48.2
	L35.5,48.2L35.5,48.2z"/>
<path class="st6" d="M19.2,61.1c-4.8,0-9.1-1.7-11.7-4.8l1.3-1.2c3.1,2.1,6.7,3.1,10.4,3c3.7,0.1,7.3-0.9,10.4-3l1.4,1.2
	C28.2,59.4,24,61.1,19.2,61.1z"/>
<path class="st6" d="M2.9,40.4h0.8c-0.3,1.2-0.4,2.5-0.4,3.8c0,0.3,0,0.7,0,1H1.5v-3.5c0-0.7,0.5-1.3,1.2-1.3H2.9z"/>
<path d="M19.2,34.4c-1.6,0-3.2,0.2-4.8,0.7v-5.2c1.6-0.4,3.2-0.7,4.8-0.6c1.6,0,3.2,0.2,4.8,0.6v5.3C22.4,34.6,20.8,34.4,19.2,34.4z
	"/>
<path class="st6" d="M1.4,46h2c0.1,0.7,0.2,1.4,0.4,2.2h-1c-0.7,0.1-1.4-0.5-1.4-1.2l0,0L1.4,46L1.4,46z"/>
<ellipse class="st6" cx="35.7" cy="30.3" rx="1.2" ry="1.1"/>
</svg>
